PathFileType	4	(X/Y/Z)	Patient4_TMGait_0pt5_01_right_08.trc.trc
DataRate	CameraRate	NumFrames	NumMarkers	Units	OrigDataRate	OrigDataStartFrame	OrigNumFrames
74.074074074074	74.074074074074	4	33	mm	74.074074074074	53	       141
Frame#	Time	L.ASIS			Sacral			L.Shoulder			Chest			R.Shoulder			Neck			R.ASIS			R.Thigh.Superior			R.Thigh.Lateral			R.Thigh.Inferior			R.Patella			L.Thigh.Superior			L.Thigh.Lateral			L.Thigh.Inferior			L.Patella			L.Shank.Superior			L.Shank.Lateral			L.Shank.Inferior			R.Shank.Superior			R.Shank.Lateral			R.Shank.Inferior			R.Heel			R.Midfoot.Superior			R.Midfoot.Lateral			R.Toe			L.Heel			L.Midfoot.Lateral			L.Midfoot.Superior			L.Toe			L.Elbow			L.Wrist			R.Elbow			R.Wrist			
		X1	Y1	Z1	X2	Y2	Z2	X3	Y3	Z3	X4	Y4	Z4	X5	Y5	Z5	X6	Y6	Z6	X7	Y7	Z7	X8	Y8	Z8	X9	Y9	Z9	X10	Y10	Z10	X11	Y11	Z11	X12	Y12	Z12	X13	Y13	Z13	X14	Y14	Z14	X15	Y15	Z15	X16	Y16	Z16	X17	Y17	Z17	X18	Y18	Z18	X19	Y19	Z19	X20	Y20	Z20	X21	Y21	Z21	X22	Y22	Z22	X23	Y23	Z23	X24	Y24	Z24	X25	Y25	Z25	X26	Y26	Z26	X27	Y27	Z27	X28	Y28	Z28	X29	Y29	Z29	X30	Y30	Z30	X31	Y31	Z31	X32	Y32	Z32	X33	Y33	Z33	

53	10.792000000000	713.121433006681	972.279465435163	359.657498232646	517.750827032817	1013.999027694670	539.580127928664	683.375406117399	1454.380151918899	373.148713549730	801.266612095473	1366.097113938612	513.990377899849	742.103086277687	1428.273495825939	702.391467884273	708.406886562004	1501.735072237901	525.869011796480	755.080421188903	945.940436408740	630.197801286065	783.191570252072	743.123283227780	597.843355447794	702.230955631886	636.675053010673	661.014867042466	772.937920536941	582.662814039101	576.743006180768	769.255880404232	493.160792384188	582.188801357456	794.338496753608	787.550750227345	372.682169512840	738.629532016940	660.990802765463	300.425513866149	847.288129843259	598.686963770039	346.985720225342	864.292395961611	515.587098887991	337.730392902650	816.398566602943	442.056501452775	336.446934569289	691.248379041813	358.798872536622	300.477489521148	725.898997286978	232.279960803933	352.703037947945	737.285706487092	406.367447580684	586.944737450683	661.662426834208	304.611132604938	645.877833902144	698.594354035462	209.869867106621	579.614716887910	553.871469267565	49.108269008462	548.533755872963	730.152331103424	98.495374142620	576.500448684375	641.650593141384	37.483252497421	616.912888569261	848.936431149188	38.564301539489	593.338724467101	570.387224035821	107.845847066196	406.496662536749	631.026843298295	87.082535609837	318.940111060268	728.624633448110	129.042933551675	330.888445361099	835.185839363765	50.895866586344	290.650670225323	573.986695286478	1127.774891877180	235.245003351256	690.741928936253	892.257289161680	217.478163337552	794.328525754015	1084.989112553136	809.325031605494	1026.184070980832	982.132833018225	767.837881797787	
54	10.805500000000	711.368828635486	972.593286700938	359.277513382584	516.466558490696	1013.977375610605	539.906435122432	682.031788871515	1454.973767023306	374.507570143273	800.338410416030	1365.820013538832	514.469659634197	742.007523875891	1427.143980443442	703.405476790129	707.652574027715	1501.565734952551	527.456044337036	753.869881239978	945.770531100716	629.790573753734	781.114819820858	742.833089949206	597.322573173376	699.872241584428	636.478185832474	660.913507070696	770.302203213158	582.174197040174	576.753657283081	766.050535152492	492.530684226595	582.323547292144	792.093635882273	787.712082433838	372.221723259057	736.410278359633	661.088786586639	299.783517525671	844.593456536559	598.867386237509	347.129201325851	862.927797463279	517.805393960107	337.611089865119	819.104137151007	443.759338732025	335.345815115109	699.685722683116	353.200056547783	298.143541405972	742.380931651553	228.444746873420	349.341288331715	733.348842427258	405.868930114989	586.976969284595	656.855402447822	304.719583994647	645.914757678542	693.037791562348	209.681007227184	579.660089249130	547.202413713314	49.530754543957	548.571408989851	723.594800856227	98.545586418610	576.640396809853	634.932594095157	37.612152787570	616.931646826795	842.210282103807	38.404927488021	593.409710464247	595.271527246066	93.453089109660	401.577074846011	657.337156342400	77.681570650896	313.938817726915	751.972247488030	125.785488789830	326.557255775427	863.526472420495	55.199608932616	285.830125133337	570.049576186246	1129.771910373832	235.527199105682	685.148117896731	893.493260198454	216.342966808337	798.439251011501	1084.004819853278	808.017160329838	1031.231212155446	984.470909857588	763.869580685231	
55	10.819000000000	709.727227966174	972.761987762012	358.777985842537	515.231485299236	1013.807457187751	539.989223810871	680.768124182340	1455.427756809389	375.663840235471	799.358201842488	1365.449991057984	514.870770203265	741.651794475664	1425.924494916641	704.267345701674	706.834881124691	1501.284391705905	528.850838983789	752.591190584891	945.460113459184	629.302361357135	779.118395892639	742.397080945389	596.857341063378	697.437764670899	636.147364109339	660.647806082743	767.663816014118	581.558507978518	576.655512998947	762.827674970013	491.791807538099	582.242749651438	789.603183278379	787.373692818858	371.748183913222	733.746434881726	660.827511418084	299.105360918782	841.300925726214	598.489671461037	347.460914020498	860.905495604010	519.595722205868	337.802755331329	821.211323408830	445.380727764042	334.446738136383	708.127191473943	347.858419358401	295.669333029767	758.634025428146	225.414298619878	346.034133878906	729.410830796522	405.257667932578	586.800046018161	652.096876660097	304.718603026953	645.786341487945	687.469489301913	209.382840125803	579.535185215635	540.512626955851	49.839300951940	548.544468682131	716.979991241988	98.558905098433	576.695888485389	628.186865505295	37.718739444829	616.905873925675	835.462993825155	38.265493270684	593.479064162423	620.432953601795	80.552777006915	396.269162387138	683.915593130465	69.680888372786	308.827469028714	775.206018921840	123.642245065334	322.401701815846	891.341980422434	60.671532231587	281.744606710120	566.320109540212	1131.674881487983	235.486070477918	679.699259957737	894.619352383828	215.211644149339	802.043959516180	1082.924022998678	806.521380664662	1035.565713141735	986.249674509409	759.953340218958	
56	10.832500000000	708.185738808401	972.806280522400	358.167933251730	514.031250270908	1013.525757295061	539.839086312946	679.590759930058	1455.738493564346	376.586780953850	798.339017632248	1365.008250600170	515.175147696268	741.055355497656	1424.669432020620	704.953009036568	705.965772385246	1500.912368478445	530.011253664130	751.256482285496	945.015631871065	628.738358680616	777.139074376278	741.811475362205	596.406835548101	694.874868985003	635.698128805519	660.204465272392	764.930668285434	580.819581086810	576.408840357688	759.494285954554	490.955514012274	581.918074761080	786.925517252385	786.628323177687	371.228164336704	730.711642663044	660.282623781733	298.371989103082	837.571520133853	597.679061674792	347.858686631556	858.378391687546	521.026951160791	338.228264932080	822.793910054682	446.980939020085	333.722462942942	716.513653536923	342.968107510708	293.104984875393	774.462600415711	223.330917487568	342.867202682233	725.401481993791	404.548736156230	586.401379884844	647.335511148283	304.612133899015	645.492626921782	681.854340789773	208.984902547544	579.236826467357	533.796154371741	50.016901467038	548.456476730249	710.299341441867	98.533443162336	576.662278795547	621.412081747718	37.798696804131	616.835338116662	828.692914235010	38.149964546541	593.545361085813	645.469264104854	69.466479947111	390.767986450194	710.369314095681	63.284023832527	303.798117459718	798.027449196224	122.710489750062	318.554877827472	918.287808960382	67.237658505473	278.550935337184	562.813462434430	1133.438920163552	235.172162484766	674.355279018019	895.563279784257	214.055964417071	805.091586328886	1081.785566337624	804.860261880937	1039.149363536149	987.478029763032	756.131620180290	
